<svg id="Layer_1" data-name="Layer 1" xmlns="http://www.w3.org/2000/svg" width="1.8in" height="3.5in" viewBox="0 0 127 250.9"><title>Artboard 1</title><path d="M115.7,185.9,97.2,155.3c3.4-11.7,6.2-25,6.2-37.9,0-1.7-.1-3.4-.2-5.1-1.8-34.1-15-46.4-24.9-56.2-4.7-4.6-8.2-8.6-10.8-14.3,0-.1-.1-.2-.1-.3a12.3,12.3,0,0,0,4.2-1.4A5.6,5.6,0,0,0,74.3,35l-.5-1.3c-.8-.8-3.1-1.3-7-1.5a20.9,20.9,0,0,1,.1-6.6c.1-1.1.1-1.1,1.8-1.3h.4a3,3,0,0,0,2-1.3c.6-1.3-.2-2.8-.7-3.7l-.2-.3-.2-.6c-2.7-6.5-4.1-11.2-4.1-13.7S65.2.6,64.6.2a1.7,1.7,0,0,0-1.7,0c-.3.2-1.4.8-1.4,4.5,0,1.7-.8,5.5-4.1,13.9V19l-.2.3a5.2,5.2,0,0,0-1,2.7,1.7,1.7,0,0,0,.3,1,2.2,2.2,0,0,0,2,1.3h.3c1.6.2,1.6.2,1.8,1.3a19,19,0,0,1,.4,4.1,21.3,21.3,0,0,1-.3,2.5q-5.7.3-6.9,1.5L53.2,35A5.6,5.6,0,0,0,56,40.1a12.5,12.5,0,0,0,4.1,1.4l-.2.3c-2.4,5.8-6.4,9.9-11.2,14.5-9.8,9.8-23,22.1-24.8,56-.1,1.7-.2,3.4-.2,5.1,0,12.9,2.7,26.2,6.2,37.9L11.2,185.9,0,250.9H12.7l11.8-41.3,19.8-16.7.9.3,2.1.7c.4,2,.7,4.2,1,5.5s.6,3.6,9.9,4.2v47.2H68.6V203.7c9.9-.6,10.4-3.1,10.6-4.1s.6-3.6.9-5.6l2.2-.7.4-.2,19.8,16.5,11.8,41.3H127Z" fill="#b4fff4"/></svg>